<svg width="555" height="555" viewBox="0 0 555 555" fill="none" xmlns="http://www.w3.org/2000/svg"><path d="M492.587 288.293c0 69.027-32.485 130.466-83 169.865H145C94.484 418.759 62 357.32 62 288.293 62 169.39 158.39 73 277.293 73c118.904 0 215.294 96.39 215.294 215.293Z" fill="#E2F1FF"/><mask id="mask0_2352_3470" style="mask-type:alpha" maskUnits="userSpaceOnUse" x="18" y="73" width="475" height="432"><path d="M492.583 288.293c0 118.904-96.39 215.294-215.293 215.294S-2.507 535 20.997 288.293C20.997 169.39 158.387 73 277.29 73c118.903 0 215.293 96.39 215.293 215.293Z" fill="#E2F1FF"/></mask><g mask="url(#mask0_2352_3470)"><path d="M36 409.845C36 375.137 64.137 347 98.845 347h383.31C516.863 347 545 375.137 545 409.845c0 34.709-28.137 62.845-62.845 62.845H98.845C64.137 472.69 36 444.554 36 409.845Z" fill="#F8F8F8"/><path d="M36 409.845C36 375.137 64.137 347 98.845 347h61.05v125.69h-61.05C64.137 472.69 36 444.554 36 409.845Z" fill="#3E5FFF"/><path d="M102.427 386.862c-12.695 0-22.983 10.288-22.983 22.983s10.288 22.983 22.983 22.983 22.983-10.288 22.983-22.983-10.288-22.983-22.983-22.983Zm0 43.093c-1.499 0-3.627-1.292-5.557-5.144-.89-1.778-1.634-4.004-2.083-6.347h15.361c-.53 2.343-1.275 4.569-2.164 6.347-1.93 3.852-4.058 5.144-5.557 5.144Zm8.233-14.364H94.194a41.994 41.994 0 0 1-.386-5.746c0-2.002.135-3.932.386-5.746h16.466c.251 1.814.386 3.744.386 5.746 0 2.002-.135 3.932-.386 5.746Zm-15.873-14.365c.449-2.424 1.194-4.57 2.083-6.348 1.93-3.853 4.058-5.144 5.557-5.144 1.499 0 3.627 1.291 5.557 5.144.889 1.778 1.634 3.924 2.164 6.348H94.787Zm-3.412 2.873c-.314 1.841-.44 3.762-.44 5.746 0 1.984.126 3.905.44 5.746h-8.224a19.946 19.946 0 0 1-.834-5.746c0-1.993.287-3.923.835-5.746h8.223Zm4.633-13.318c-1.885 2.544-3.376 6.172-4.238 10.445h-7.514a20.142 20.142 0 0 1 11.752-10.445Zm12.838 0a20.172 20.172 0 0 1 11.756 10.445h-7.518c-.862-4.273-2.352-7.901-4.238-10.445Zm13.691 19.064c0 1.993-.29 3.923-.833 5.746h-8.144c.233-1.841.359-3.762.359-5.746 0-1.984-.126-3.905-.359-5.746h8.144c.543 1.823.833 3.753.833 5.746Zm-38.281 8.619h7.514c.862 4.273 2.353 7.9 4.238 10.441a20.12 20.12 0 0 1-11.752-10.441Zm28.828 0h7.518a20.15 20.15 0 0 1-11.756 10.441c1.886-2.541 3.376-6.168 4.238-10.441Z" fill="#fff"/></g><path fill-rule="evenodd" clip-rule="evenodd" d="M352.232 87.611c0 4.43-2.615 8.247-6.385 9.995a11.011 11.011 0 0 1 6.385 9.994c0 6.08-4.929 11.009-11.009 11.009-.553 0-1.096-.04-1.626-.119l-.082.165a10.976 10.976 0 0 1 3.308 7.867c0 6.081-4.929 11.01-11.01 11.01-1.903 0-3.694-.483-5.256-1.334.352 1.078.542 2.228.542 3.423 0 6.08-4.929 11.009-11.009 11.009-4.27 0-7.972-2.43-9.798-5.983a49.383 49.383 0 0 1-10.819 1.193 49.14 49.14 0 0 1-17.132-3.062 10.977 10.977 0 0 1-7.857 3.298c-6.081 0-11.01-4.929-11.01-11.01 0-.476.03-.945.089-1.405h-.089c-6.08 0-11.009-4.929-11.009-11.009 0-1.62.35-3.159.978-4.544-4.47-1.401-7.714-5.576-7.714-10.508 0-3.548 1.679-6.704 4.285-8.718a10.992 10.992 0 0 1-4.285-8.717c0-3.98 2.112-7.465 5.275-9.4a10.96 10.96 0 0 1-2.301-6.737c0-6.056 4.89-10.97 10.936-11.009a11.065 11.065 0 0 1-.227-2.237c0-6.08 4.929-11.01 11.01-11.01 2.619 0 5.025.916 6.916 2.444.553-5.563 5.246-9.908 10.955-9.908 3.574 0 6.751 1.704 8.762 4.343a11.007 11.007 0 0 1 9.62-5.651c5.428 0 9.938 3.928 10.844 9.096a10.966 10.966 0 0 1 7.285-2.755c6.08 0 11.009 4.93 11.009 11.01 0 .6-.048 1.189-.14 1.763.82-.195 1.676-.298 2.556-.298 6.08 0 11.009 4.929 11.009 11.01 0 2.214-.654 4.276-1.779 6.003 5.008 1.033 8.773 5.468 8.773 10.782Z" fill="#000"/><path d="M194.314 263.121h119.83v56.013c0 15.631-12.693 28.324-28.324 28.324h-91.506v-84.343.006Z" fill="#3D3D3D"/><path d="m334.002 292.666-98.706-15.473-16.82 22.27c-3.097 1.165-6.322 1.469-9.388.988a18.339 18.339 0 0 1-13.802-10.388l-9.297-19.838a51.568 51.568 0 0 1 2.182-47.801l30.58-52.386a51.96 51.96 0 0 1 25.159-21.868l22.654-9.291c2.664-1.103 27.72-11.967 30.586-11.516 2.847.445 24.513 18.631 26.714 20.502l18.722 15.778a51.849 51.849 0 0 1 17.246 28.518l13.095 59.233c.025.152.061.317.104.487 4.938 23.447-15.369 44.504-39.029 40.797v-.012Z" fill="#95D1F9"/><path d="M323.56 290.861c-8.285-1.299-20.697-13.315-27.227-20.222-1.804-1.902-5.011-.896-5.413 1.695l-2.055 13.089 34.695 5.438Z" fill="#E59A48"/><path d="m312.876 153.035-11.442 15.899c-5.725 7.937-18.033 5.999-21.045-3.298l-6.017-18.631c-.75-2.286-.768-4.736-.092-7.053l12.906-43.71 29.019 4.547-1.091 45.564c-.043 2.402-.842 4.731-2.244 6.682h.006ZM280.458 94.47a5.742 5.742 0 0 0-6.169-5.285 5.75 5.75 0 0 0-5.286 6.181c.25 3.164 3.225 8.139 6.389 7.889 3.164-.25 5.316-5.621 5.066-8.791v.006Zm49.909-3.914a5.746 5.746 0 0 0-6.182-5.28 5.75 5.75 0 0 0-5.285 6.182c.25 3.164 3.225 8.139 6.389 7.889 3.164-.25 5.328-5.627 5.078-8.791Z" fill="#F4C9B8"/><path d="M302.68 131.203c-13.303 1.042-25.056-8.602-26.641-21.862l-2.506-21.014c-1.707-14.51 8.968-27.531 23.532-28.677 14.564-1.14 27.153 10.053 27.714 24.653l.805 21.149c.518 13.338-9.59 24.702-22.904 25.744v.007Z" fill="#F4C9B8"/><path d="M315.406 134.891c-.914.408-1.835.749-2.786 1.042a24.7 24.7 0 0 1-11.077.768c-4.316-.677-8.2-2.414-11.419-4.926-1.03-.798-.079-2.438 1.128-1.957a24.863 24.863 0 0 0 5.298 1.433 24.773 24.773 0 0 0 19.057-4.895l-.201 8.528v.007Z" fill="#CEA193"/><path d="m324.565 81.235.732 9.34a1.68 1.68 0 0 1-1.543 1.804 1.709 1.709 0 0 1-1.243-.409l-14.577-12.826c-5.493-4.829-13.881-4.17-18.539 1.456l-12.424 14.943c-.287.341-.713.56-1.152.597a1.669 1.669 0 0 1-1.805-1.542l-.695-8.822c-1.097-14.021 9.004-26.708 23.002-28.122 7.297-.744 14.155 1.64 19.301 6.035a25.628 25.628 0 0 1 8.931 17.546h.012Z" fill="#000"/><path d="M179.368 314.239a4.392 4.392 0 0 1-4.386-4.184l-3.911-82.927c-3.524-18.417 10.595-35.493 29.347-35.493 9.09 0 17.68 4.133 23.35 11.235l44.076 81.251-7.066 16.431-37.937 13.687" fill="#3D3D3D"/><path d="M357.533 468.415c-3.548 7.773 30.994 28.128 27.171 36.517l-75.29-34.335c4.085-8.949 13.802-17.832 13.802-17.832l34.317 15.65ZM222.902 321.59v-65.255a1.43 1.43 0 0 1 1.427-1.427 1.42 1.42 0 0 1 1.408 1.238l12.223 91.317-15.466-.152.415-25.721h-.007Z" fill="#000"/><path d="M185.116 314.237h37.718c0 10.979 2.28 10.98 2.28 21.953h-55.111c0-8.651 15.119-13.778 15.119-21.953h-.006Z" fill="#000"/><path d="m269.393 347.439 57.08.061-10.164 100.812a4.39 4.39 0 0 0 2.54 4.432l40.191 18.4c2.692 1.232 5.807-.498 6.183-3.435l18.336-143.277a32.462 32.462 0 0 0-18.703-29.403 32.458 32.458 0 0 0-9.09-2.719l-91.372-10.559 4.999 65.688Z" fill="#3D3D3D"/><path d="M336.76 296.7c19.825 0 35.895-16.071 35.895-35.895s-16.07-35.895-35.895-35.895c-19.824 0-35.895 16.071-35.895 35.895S316.936 296.7 336.76 296.7Z" fill="#95D1F9"/><path d="m384.799 504.686-75.319-34.3-2.646 5.697a4.334 4.334 0 0 0 2.124 5.766l67.348 30.912a4.336 4.336 0 0 0 5.745-2.123l2.748-5.952ZM225.115 336.19h-55.111v6.937a4.336 4.336 0 0 0 4.336 4.336h46.439a4.336 4.336 0 0 0 4.336-4.336v-6.937Z" fill="#E3E3E3"/><path d="M254.936 235.06a4.24 4.24 0 0 0-2.855 5.272l3.848 12.961a4.24 4.24 0 0 0 5.273 2.855 4.073 4.073 0 0 0 1.537-.828l14.935-12.748a8.91 8.91 0 0 0 3.041-5.445l1.003-6.507c.256-1.714-1.347-3.122-3.016-2.628l-23.773 7.063" fill="#F4C9B8"/><path d="M309.458 99.253c.407 2.199 1.014 3.928 1.858 3.772.844-.156.794-1.988.387-4.187-.406-2.2-1.014-3.929-1.858-3.773-.844.156-.793 1.989-.387 4.188Zm-3.1-8.389a1.558 1.558 0 0 1 .42-2.927c.164-.028 3.734-.64 7.513 1.494a1.558 1.558 0 0 1 .595 2.127 1.564 1.564 0 0 1-2.129.59c-2.762-1.568-5.396-1.124-5.43-1.119-.339.057-.676-.028-.969-.165Zm-13.868 5.464a1.559 1.559 0 0 0-1.438-2.583c-.164.031-3.717.736-6.483 4.08a1.558 1.558 0 0 0 .205 2.2 1.565 1.565 0 0 0 2.199-.21c2.019-2.453 4.638-2.98 4.671-2.987.337-.068.622-.268.846-.5Zm-4.957 7.78c.217 1.172 1.655-.132 3.658-.502 2.003-.371 3.813.333 3.596-.838-.216-1.172-2.016-1.821-4.019-1.451-2.003.37-3.451 1.62-3.235 2.791Zm15.866 13.013c.499-.237 1.036-.071 1.28.354a.936.936 0 0 1-.344 1.275c-.206.116-.419.23-.633.331-4.104 1.955-9.578.872-12.479-2.461a.946.946 0 0 1 .097-1.33.795.795 0 0 1 .214-.138.944.944 0 0 1 1.117.235c2.37 2.729 6.866 3.607 10.253 1.994.17-.081.344-.164.502-.269l.005.01-.012-.001Z" fill="#000"/><path d="M243.435 226.577h84.351a8.392 8.392 0 0 1 8.392 8.392v47.502a8.391 8.391 0 0 1-8.392 8.391h-84.351a8.391 8.391 0 0 1-8.391-8.391v-47.502a8.391 8.391 0 0 1 8.391-8.392Z" fill="#F8F8F8"/><path d="M285.62 263.832a5.11 5.11 0 1 1 0-10.22 5.11 5.11 0 0 1 0 10.22Z" fill="#3D3D3D"/><path d="m339.279 252.406-22.102 11.249a2.367 2.367 0 0 0-.377 3.983l5.208 4.027a8.907 8.907 0 0 0 5.955 1.855l19.608-1.041c.576-.025 1.158-.198 1.685-.458a4.252 4.252 0 0 0 1.857-5.701l-6.135-12.048a4.25 4.25 0 0 0-5.7-1.858" fill="#F4C9B8"/><path d="M241.192 417.476a4.165 4.165 0 0 0-5.705 1.46l-2.85 4.808a4.166 4.166 0 0 0 1.46 5.706l44.6 26.427a4.165 4.165 0 0 0 5.706-1.459l2.849-4.809a4.164 4.164 0 0 0-1.46-5.705l-44.6-26.428Z" fill="#2A2B32"/><path d="M304.843 420.433a3.715 3.715 0 0 1-2.69-1.095c-.739-.739-1.104-1.636-1.095-2.69-.009-1.028.356-1.907 1.095-2.637a3.715 3.715 0 0 1 2.69-1.095c.992 0 1.866.365 2.623 1.095.766.73 1.154 1.609 1.163 2.637a3.634 3.634 0 0 1-.555 1.919 4.083 4.083 0 0 1-1.378 1.366 3.6 3.6 0 0 1-1.853.5Zm-11.896 0a3.714 3.714 0 0 1-2.69-1.095c-.739-.739-1.104-1.636-1.095-2.69-.009-1.028.356-1.907 1.095-2.637a3.714 3.714 0 0 1 2.69-1.095c.991 0 1.866.365 2.623 1.095.766.73 1.153 1.609 1.162 2.637a3.643 3.643 0 0 1-.554 1.919 4.085 4.085 0 0 1-1.379 1.366c-.568.333-1.185.5-1.852.5Zm-11.897 0a3.715 3.715 0 0 1-2.69-1.095c-.739-.739-1.104-1.636-1.095-2.69-.009-1.028.356-1.907 1.095-2.637a3.715 3.715 0 0 1 2.69-1.095c.992 0 1.866.365 2.623 1.095.766.73 1.154 1.609 1.163 2.637a3.634 3.634 0 0 1-.555 1.919 4.077 4.077 0 0 1-1.379 1.366c-.567.333-1.185.5-1.852.5ZM250.187 420l-5.191-20.765h7.462l2.379 12.654H255l2.649-12.654h7.246l2.758 12.546h.162l2.272-12.546h7.462L272.358 420h-8.057l-2.921-11.139h-.216L258.244 420h-8.057Zm-33.31 0-5.192-20.765h7.463l2.379 12.654h.162l2.65-12.654h7.246l2.758 12.546h.162l2.271-12.546h7.463L239.047 420h-8.057l-2.92-11.139h-.216L224.934 420h-8.057Zm-33.311 0-5.191-20.765h7.462l2.38 12.654h.162l2.65-12.654h7.246l2.758 12.546h.162l2.271-12.546h7.462L205.737 420h-8.057l-2.92-11.139h-.217L191.623 420h-8.057Z" fill="#E3E3E3"/><path fill-rule="evenodd" clip-rule="evenodd" d="M231.403 420.347c-8.078 13.633-25.677 18.136-39.31 10.058-13.632-8.078-18.135-25.678-10.057-39.31 8.077-13.633 25.677-18.136 39.31-10.058 13.632 8.078 18.135 25.678 10.057 39.31Zm7.165 4.246c-10.422 17.59-33.131 23.4-50.721 12.977-17.589-10.423-23.399-33.131-12.977-50.721 10.423-17.59 33.132-23.4 50.721-12.977 17.59 10.423 23.4 33.131 12.977 50.721Z" fill="#2A2B32"/><path d="M501.429 130h-9.693a5.885 5.885 0 0 0-5.099 2.947l-4.846 8.399a5.87 5.87 0 0 0 0 5.887l4.846 8.4a5.9 5.9 0 0 0 5.099 2.946h9.693a5.886 5.886 0 0 0 5.099-2.946l4.846-8.4a5.87 5.87 0 0 0 0-5.887l-4.846-8.399a5.901 5.901 0 0 0-5.099-2.947Zm-35.587-53h-13.684c-2.967 0-5.711 1.606-7.199 4.228l-6.842 12.05a8.54 8.54 0 0 0 0 8.444l6.842 12.05c1.488 2.612 4.232 4.228 7.199 4.228h13.684c2.967 0 5.711-1.606 7.199-4.228l6.842-12.05a8.54 8.54 0 0 0 0-8.444l-6.842-12.05c-1.488-2.611-4.232-4.228-7.199-4.228Zm-242 413h-13.684c-2.967 0-5.711 1.606-7.199 4.228l-6.842 12.05a8.54 8.54 0 0 0 0 8.444l6.842 12.05c1.488 2.612 4.232 4.228 7.199 4.228h13.684c2.967 0 5.711-1.606 7.199-4.228l6.842-12.05a8.54 8.54 0 0 0 0-8.444l-6.842-12.05c-1.488-2.612-4.232-4.228-7.199-4.228Z" fill="#FF7059"/></svg>